HIERARCHY
ROOT Hips
{
  OFFSET -102.467 93.6631 130.069
  CHANNELS 6 Xposition Yposition Zposition Zrotation Xrotation Yrotation
  JOINT LeftUpLeg
  {
    OFFSET 8.64259 1.95398 -2.38835
    CHANNELS 3 Zrotation Xrotation Yrotation
    JOINT LeftLeg
    {
      OFFSET 43.7702 0 0
      CHANNELS 3 Zrotation Xrotation Yrotation
      JOINT LeftFoot
      {
        OFFSET 40.6238 0 0
        CHANNELS 3 Zrotation Xrotation Yrotation
        JOINT LeftToeBase
        {
          OFFSET 12.7242 0 0
          CHANNELS 3 Zrotation Xrotation Yrotation
          End Site
          {
            OFFSET 0 0 0
          }
        }
      }
    }
  }
  JOINT RightUpLeg
  {
    OFFSET -8.2249 1.95398 -2.59336
    CHANNELS 3 Zrotation Xrotation Yrotation
    JOINT RightLeg
    {
      OFFSET 43.5653 0 0
      CHANNELS 3 Zrotation Xrotation Yrotation
      JOINT RightFoot
      {
        OFFSET 40.6238 0 0
        CHANNELS 3 Zrotation Xrotation Yrotation
        JOINT RightToeBase
        {
          OFFSET 12.7242 0 0
          CHANNELS 3 Zrotation Xrotation Yrotation
          End Site
          {
            OFFSET 0 0 0
          }
        }
      }
    }
  }
  JOINT Spine
  {
    OFFSET 0.165834 0.87714 6.61349
    CHANNELS 3 Zrotation Xrotation Yrotation
    JOINT Spine1
    {
      OFFSET 7.38963 1.71661e-005 0
      CHANNELS 3 Zrotation Xrotation Yrotation
      JOINT Spine2
      {
        OFFSET 11.9445 1.14441e-005 0
        CHANNELS 3 Zrotation Xrotation Yrotation
        JOINT Spine3
        {
          OFFSET 14.7254 4.19617e-005 0
          CHANNELS 3 Zrotation Xrotation Yrotation
          JOINT Spine4
          {
            OFFSET 10.9679 0 0
            CHANNELS 3 Zrotation Xrotation Yrotation
            JOINT RightShoulder
            {
              OFFSET 2.46616 -1.6653 3.69651
              CHANNELS 3 Zrotation Xrotation Yrotation
              JOINT RightArm
              {
                OFFSET 13.0012 0 0
                CHANNELS 3 Zrotation Xrotation Yrotation
                JOINT RightForeArm
                {
                  OFFSET 28.7848 1.52588e-005 0
                  CHANNELS 3 Zrotation Xrotation Yrotation
                  JOINT RightHand
                  {
                    OFFSET 26.5688 1.52588e-005 0
                    CHANNELS 3 Zrotation Xrotation Yrotation
                    End Site
                    {
                      OFFSET 0 0 0
                    }
                  }
                }
              }
            }
            JOINT LeftShoulder
            {
              OFFSET 2.38034 -1.29275 -3.7523
              CHANNELS 3 Zrotation Xrotation Yrotation
              JOINT LeftArm
              {
                OFFSET 16.3182 6.10351e-005 0
                CHANNELS 3 Zrotation Xrotation Yrotation
                JOINT LeftForeArm
                {
                  OFFSET 27.0901 0 0
                  CHANNELS 3 Zrotation Xrotation Yrotation
                  JOINT LeftHand
                  {
                    OFFSET 24.5451 1.52588e-005 0
                    CHANNELS 3 Zrotation Xrotation Yrotation
                    End Site
                    {
                      OFFSET 0 0 0
                    }
                  }
                }
              }
            }
            JOINT Neck
            {
              OFFSET 5.0226 -0.0266342 0
              CHANNELS 3 Zrotation Xrotation Yrotation
              JOINT Head
              {
                OFFSET 6.69363 2.86102e-005 0
                CHANNELS 3 Zrotation Xrotation Yrotation
                End Site
                {
                  OFFSET 0 0 0
                }
              }
            }
          }
        }
      }
    }
  }
}
MOTION
Frames:	6
Frame Time:	0.0416667
50.1048 97.5605 -62.8592 132.334 -81.4207 133.401 177.182 16.8708 92.5318 -12.4216 14.7046 2.89143 48.1427 -0.500968 6.74147 45.4495 -0.0248203 9.02223 174.818 0.489981 91.8108 -30.5438 -4.44884 1.10178 70.9435 4.85427 15.1035 27.8055 1.14919 6.04803 0.0251634 7.73954 -90.5148 11.3928 -0.19012 -1.00612 -0.278468 -0.234201 -0.996786 -22.8105 0.121032 -1.01674 -2.79787 0.121033 -1.01675 102.001 -50.8068 -82.4227 27.7178 -11.2596 -6.46804 -8.62368 -11.0384 -29.1733 -8.79485 -0.36783 -0.330819 -82.3139 -54.9224 90.4553 -29.8327 1.61832 2.34003 10.4536 37.2575 -16.2696 -11.9786 -0.223218 -2.79068 -0.681006 -7.64648 -6.01493 -17.9297 -6.47676 -2.70185 
50.2633 96.9933 -54.8434 -175.512 -84.4755 -172.931 177.449 19.0709 93.2782 -11.2818 27.704 8.14096 56.5876 -0.285377 2.70512 48.0888 -0.400653 7.84049 175.45 -3.65276 91.9677 -30.4575 -10.401 0.117674 68.9516 3.48738 13.8565 35.0953 0.456101 8.95023 0.292173 7.80964 -90.614 11.2546 0.295744 -1.25139 -0.416893 0.240382 -1.2632 -22.9483 0.658136 -1.10468 -2.93567 0.658138 -1.10469 101.918 -50.3179 -82.5532 27.4434 -12.0469 -7.19484 -8.75021 -9.99794 -30.9957 -9.78099 -0.337005 -1.18314 -82.0674 -55.7872 90.8684 -28.8841 1.28759 4.06832 10.6368 35.9016 -17.202 -14.9257 -0.268788 -2.74251 -2.22434 -8.87738 -5.10308 -18.2952 -7.54851 -5.57452 
50.8649 95.556 -45.8831 -128.024 -80.0572 -125.826 176.894 17.5711 94.0877 -16.1485 27.6557 7.79256 52.9017 -1.26283 4.37286 49.5749 -0.434902 8.03843 176.207 -5.6497 89.9353 -35.6879 -17.0411 -2.63846 64.8354 4.37486 13.8958 46.5883 -0.767506 10.9003 0.377791 7.89031 -90.4063 11.0936 0.563432 -0.864758 -0.577561 0.52483 -0.88872 -23.1121 0.797277 -0.65545 -3.0995 0.797271 -0.655461 101.475 -50.7375 -83.2355 27.8614 -12.3686 -6.3506 -8.66494 -10.9189 -29.8359 -10.525 -0.343623 -1.3135 -81.5559 -56.3896 91.6335 -26.9346 1.41284 3.4608 9.59901 34.9166 -16.0284 -12.1525 -0.184694 -3.33431 -5.10297 -9.52526 -4.66999 -17.1568 -8.1442 -8.20996 
50.9167 94.222 -37.496 -121.977 -76.0089 -122.846 178.67 18.2603 91.1723 -29.0155 25.9323 6.03471 54.4458 -0.967607 7.42981 45.7144 -0.93309 4.79607 175.049 -2.60986 84.4369 -48.8955 -17.4665 -3.69975 54.6923 7.73529 13.7361 28.5177 1.7487 10.4801 0.0375083 8.04648 -89.8244 10.7841 0.15583 0.33699 -0.886799 0.170515 0.329797 -23.4219 0.0473392 0.368236 -3.40928 0.0473425 0.368237 101.813 -51.158 -82.7109 30.5476 -11.1996 -4.86524 -6.72174 -11.5443 -25.0103 -12.1936 -0.653554 0.98325 -82.9739 -55.5102 89.5566 -25.1907 1.71597 -1.10791 7.97344 37.3194 -12.8497 -11.3622 -0.2781 -2.01672 -8.05348 -11.2716 -4.73567 -17.5655 -9.52836 -12.4732 
50.4825 94.5393 -30.7994 -112.937 -69.5242 -114.74 -177.334 14.2935 90.615 -32.2109 21.9829 3.85286 59.164 1.72531 10.2683 46.3955 -1.34295 3.26193 175.702 9.48193 83.4855 -67.3856 -13.8195 -3.65004 48.279 8.62181 9.33983 27.6793 -0.470594 -4.74387 -0.23644 8.22091 -89.5195 10.4322 -0.250636 0.976662 -1.23912 -0.207419 0.986739 -23.7721 -0.532568 0.856201 -3.75945 -0.532575 0.856191 101.574 -51.028 -83.0791 32.715 -11.9972 -6.07693 -5.0947 -13.726 -19.0261 -9.87864 -0.652278 2.61376 -83.7931 -54.4961 88.2921 -22.3807 1.07014 -9.27033 5.398 35.1488 -8.13607 -10.2497 -0.313967 -1.12551 -8.42453 -11.1823 -4.19486 -17.6026 -9.56097 -11.8549 
49.0895 95.6277 -24.4672 -106.183 -65.4474 -105.299 -175.021 10.8239 93.1767 -32.386 18.4542 3.68207 62.3835 3.20514 10.3181 47.2876 -1.32354 3.69505 172.193 19.1789 88.4892 -68.748 -14.6844 -0.616619 52.1962 8.09366 13.2986 25.8499 1.13116 3.44992 -0.710108 8.18695 -89.7955 10.5025 -1.32064 0.524085 -1.16793 -1.29629 0.581704 -23.7082 -1.41708 0.102879 -3.69559 -1.41709 0.102872 101.242 -51.5261 -83.5838 33.2296 -12.7059 -4.19141 -6.58622 -15.327 -20.2394 -4.52928 -0.217549 0.671938 -83.8592 -52.6067 88.006 -20.565 1.3079 -16.7065 5.73805 30.1644 -8.74412 -1.85907 -0.0782905 0.649246 -8.51864 -10.1449 -3.93685 -16.6925 -8.87109 -9.66117 
